<svg width="34" height="27" viewBox="0 0 34 27" fill="none" xmlns="http://www.w3.org/2000/svg">
<path d="M20.2748 13.4947L14.9446 16.7041V10.2854L20.2748 13.4947Z" fill="#586349" stroke="#586349" stroke-width="3" stroke-linecap="round" stroke-linejoin="round"/>
<path d="M2 14.629V12.3582C2 7.71212 2 5.3891 3.37897 3.8944C4.75795 2.39969 6.92895 2.33499 11.2709 2.20559C13.3284 2.14428 15.4301 2.10034 17.229 2.10034C19.0278 2.10034 21.1296 2.14428 23.187 2.20559C27.529 2.33499 29.7 2.39969 31.079 3.8944C32.458 5.3891 32.458 7.71212 32.458 12.3582V14.629C32.458 19.275 32.458 21.5981 31.079 23.0927C29.7 24.5874 27.5291 24.6521 23.1872 24.7816C21.1296 24.8429 19.0278 24.8868 17.229 24.8868C15.4301 24.8868 13.3283 24.8429 11.2708 24.7816C6.92888 24.6521 4.75792 24.5874 3.37895 23.0927C2 21.5981 2 19.275 2 14.629Z" stroke="#586349" stroke-width="3"/>
</svg>
