<svg width="31" height="21" viewBox="0 0 31 21" fill="none" xmlns="http://www.w3.org/2000/svg">
<path fill-rule="evenodd" clip-rule="evenodd" d="M30.7577 16.7763C30.048 15.27 29.1127 13.894 27.988 12.7012C27.6053 12.2323 27.1565 11.7696 26.8061 11.4086L26.7572 11.3581C26.5765 11.1717 26.4272 11.017 26.3051 10.8837C27.8429 8.63038 29.1592 6.2176 30.2332 3.68247L30.2765 3.58018L30.3069 3.47284C30.4479 2.97386 30.6105 2.02502 30.0355 1.16752C29.4411 0.281226 28.4892 0.121383 27.8519 0.121383H24.9196C24.3084 0.0918615 23.703 0.265992 23.1902 0.620013C22.6734 0.976702 22.2782 1.49699 22.0606 2.10518C21.4292 3.69013 20.639 5.19769 19.7046 6.60264V2.98186C19.7046 2.51383 19.6628 1.73089 19.1872 1.07006C18.6177 0.278834 17.7942 0.121383 17.2225 0.121383H12.5697C11.9703 0.10678 11.3873 0.332624 10.9392 0.754227C10.4804 1.18598 10.1992 1.78908 10.1553 2.43563L10.1512 2.49687V2.55828C10.1512 3.22582 10.4022 3.71822 10.6027 4.0279C10.6925 4.16654 10.7886 4.29275 10.8492 4.37246L10.8633 4.39085C10.9279 4.47586 10.9711 4.53259 11.0145 4.5947C11.1284 4.75808 11.2924 5.00998 11.3388 5.66181V7.68713C10.5367 6.29773 9.69048 4.44882 9.05381 2.47415L9.04403 2.44384L9.0332 2.41393C8.87446 1.97583 8.61984 1.33838 8.10989 0.850573C7.51414 0.280704 6.80951 0.121383 6.16868 0.121383H3.1935C2.5452 0.121383 1.76364 0.281199 1.18047 0.929402C0.607004 1.56684 0.542053 2.33064 0.542053 2.73674V2.9198L0.578642 3.09874C1.40271 7.12903 3.10071 10.9033 5.53924 14.1263C6.6448 15.9633 8.14286 17.5031 9.91424 18.6222C11.7139 19.7594 13.7442 20.4295 15.8378 20.5778L15.8924 20.5816H15.9472C16.8943 20.5816 17.8817 20.4955 18.6242 19.9741C19.6259 19.2708 19.7046 18.1906 19.7046 17.6523V16.0877C19.9617 16.3066 20.2806 16.6014 20.671 16.9975C21.143 17.4953 21.5188 17.9266 21.8411 18.3031L22.0131 18.5047L22.0142 18.5058C22.2645 18.7995 22.5108 19.0886 22.7352 19.3262C23.0171 19.6249 23.3648 19.9541 23.8018 20.1972C24.275 20.4605 24.7716 20.5795 25.2992 20.5795H28.2764C28.9036 20.5795 29.8032 20.4232 30.4357 19.6506C31.1249 18.8085 31.0724 17.7765 30.8556 17.0348L30.8166 16.9014L30.7577 16.7763ZM23.2944 16.9215C22.9593 16.53 22.5552 16.066 22.0445 15.5279L22.0403 15.5235C20.2707 13.7257 19.4437 13.4125 18.8591 13.4125C18.5481 13.4125 18.204 13.4493 17.9808 13.7424C17.8753 13.8807 17.82 14.0476 17.7889 14.2215C17.7579 14.3952 17.7472 14.5991 17.7472 14.8314V17.6523C17.7472 18.0027 17.6925 18.1498 17.5388 18.2579C17.3339 18.4017 16.8961 18.5183 15.9581 18.5191C14.1777 18.3912 12.4514 17.8205 10.9208 16.8534C9.3871 15.8845 8.09381 14.5454 7.14745 12.9465L7.13715 12.9292L7.12496 12.9131C4.85272 9.93305 3.2694 6.43727 2.49984 2.70193C2.50402 2.52186 2.54104 2.41503 2.60103 2.34835C2.66284 2.27964 2.81262 2.18388 3.1935 2.18388H6.16868C6.49964 2.18388 6.67092 2.25974 6.7942 2.37766C6.93396 2.51135 7.05517 2.73838 7.20244 3.14374C7.93269 5.40697 8.92021 7.5235 9.85535 9.07973C10.3227 9.85757 10.7828 10.5051 11.1972 10.9625C11.4041 11.191 11.607 11.3802 11.8006 11.5149C11.988 11.6451 12.2005 11.7478 12.419 11.7478C12.5343 11.7478 12.6691 11.7353 12.799 11.6746C12.9387 11.6096 13.0471 11.501 13.1237 11.3554C13.2591 11.098 13.2962 10.7167 13.2962 10.2171V5.59203L13.2955 5.58118C13.2279 4.45596 12.9055 3.82301 12.5915 3.37304C12.5227 3.27442 12.4549 3.18535 12.3955 3.1074L12.3793 3.08605C12.3141 3.00039 12.2622 2.93117 12.2196 2.86535C12.1415 2.74475 12.1112 2.66066 12.1087 2.57056C12.1189 2.46361 12.1667 2.36438 12.243 2.29258C12.3222 2.21805 12.4259 2.17925 12.532 2.18388H17.2225C17.4914 2.18388 17.582 2.25302 17.6275 2.31635C17.6919 2.40575 17.7472 2.59169 17.7472 2.98186V9.2087C17.7472 9.94832 18.0708 10.4491 18.5407 10.4491C19.0815 10.4491 19.4713 10.1034 20.153 9.38512L20.1643 9.37315L20.1745 9.35995C21.7023 7.39687 22.951 5.20976 23.8804 2.86738L23.8862 2.84982C23.9562 2.64284 24.0884 2.46565 24.2628 2.34525C24.4372 2.22487 24.6441 2.16791 24.8521 2.18307L24.8635 2.18388H27.8519C28.2594 2.18388 28.3936 2.29318 28.4369 2.35782C28.483 2.42658 28.5151 2.57397 28.4368 2.86301C27.3653 5.38807 26.0403 7.78489 24.4849 10.0132L24.4751 10.0289C24.3242 10.2723 24.1586 10.5415 24.1346 10.8506C24.1089 11.1825 24.2452 11.4843 24.4836 11.8077C24.6574 12.0785 25.0159 12.4482 25.3796 12.8233L25.4139 12.8586C25.7952 13.2519 26.2082 13.6779 26.5398 14.0904L26.5487 14.1012L26.5583 14.1114C27.5468 15.1504 28.3688 16.3514 28.9922 17.6676C29.0917 18.0259 29.0308 18.209 28.9534 18.3035C28.863 18.4141 28.6602 18.517 28.2764 18.517H25.2992C25.0667 18.517 24.8872 18.4688 24.7158 18.3734C24.5371 18.2739 24.3534 18.1158 24.1229 17.8718C23.9374 17.6751 23.7346 17.4373 23.4872 17.1473C23.4259 17.0754 23.3618 17 23.2944 16.9215Z" fill="#586349"/>
</svg>
