<svg width="32" height="29" viewBox="0 0 32 29" fill="none" xmlns="http://www.w3.org/2000/svg">
<path d="M28.8105 0.00268515C28.4168 0.0219764 28.0461 0.142546 27.7165 0.277585H27.712C27.3778 0.417446 25.7896 1.12158 23.3775 2.18742C20.9654 3.25808 17.8347 4.64705 14.7269 6.02637C8.52043 8.78019 2.41924 11.4906 2.41924 11.4906L2.49247 11.4617C2.49247 11.4617 2.07138 11.6064 1.63198 11.9247C1.40771 12.079 1.16055 12.2912 0.945429 12.624C0.730308 12.9567 0.55638 13.468 0.620459 13.9936C0.725731 14.8859 1.27498 15.4212 1.6686 15.7154C2.0668 16.0144 2.4467 16.1543 2.4467 16.1543H2.45585L8.17715 18.1847C8.43347 19.0528 9.92101 24.2035 10.278 25.3899C10.4886 26.0989 10.6945 26.5426 10.9508 26.8802C11.0744 27.0538 11.2209 27.1985 11.3948 27.3142C11.4635 27.3576 11.5367 27.3914 11.6099 27.4203C11.6328 27.4348 11.6557 27.4396 11.6832 27.4445L11.6237 27.43C11.642 27.4348 11.6557 27.4493 11.6694 27.4541C11.7152 27.4686 11.7472 27.4734 11.8067 27.483C12.713 27.7724 13.4407 27.1792 13.4407 27.1792L13.4819 27.1454L16.8598 23.9045L22.5216 28.4814L22.6498 28.5392C23.8306 29.0842 25.0252 28.7804 25.6569 28.245C26.2931 27.7049 26.5402 27.0152 26.5402 27.0152L26.5814 26.9043L30.9571 3.28702C31.0807 2.70346 31.1127 2.15848 30.9754 1.62797C30.8381 1.09746 30.4856 0.600713 30.06 0.335458C29.6297 0.0653813 29.2041 -0.0166061 28.8105 0.00268515ZM28.6915 2.53466C28.6869 2.61182 28.7006 2.60218 28.6686 2.75168V2.76615L24.3341 26.1375C24.3158 26.1712 24.2838 26.2436 24.1968 26.3159C24.1053 26.3931 24.032 26.4413 23.6521 26.2822L16.7271 20.6877L12.5436 24.7051L13.4224 18.7923C13.4224 18.7923 24.27 8.13876 24.7369 7.68059C25.2037 7.22242 25.0481 7.12597 25.0481 7.12597C25.0802 6.56652 24.3433 6.96199 24.3433 6.96199L10.0766 16.2748L10.072 16.2507L3.23395 13.8248V13.82C3.22937 13.82 3.22022 13.8152 3.21564 13.8152C3.22022 13.8152 3.25226 13.8007 3.25226 13.8007L3.28887 13.7814L3.32549 13.767C3.32549 13.767 9.43126 11.0566 15.6377 8.30273C18.7455 6.92341 21.8762 5.53444 24.2838 4.46378C26.6913 3.39794 28.4718 2.61665 28.5724 2.57324C28.6686 2.53466 28.6228 2.53466 28.6915 2.53466Z" fill="#586349"/>
</svg>
